<svg xmlns="http://www.w3.org/2000/svg" version="1.1" xmlns:xlink="http://www.w3.org/1999/xlink" xmlns:svgjs="http://svgjs.dev/svgjs" width="50" height="50" viewBox="0 0 1000 1000"><rect width="1000" height="1000" fill="#7367F0"></rect><g transform="matrix(0.7,0,0,0.7,149.57575757575756,282.1265587044535)"><svg viewBox="0 0 396 247" data-background-color="#c53f36" preserveAspectRatio="xMidYMid meet" height="623" width="1000" xmlns="http://www.w3.org/2000/svg" xmlns:xlink="http://www.w3.org/1999/xlink"><g id="tight-bounds" transform="matrix(1,0,0,1,0.2400000000000091,-0.09999999999999432)"><svg viewBox="0 0 395.52 247.2" height="247.2" width="395.52"><g><svg></svg></g><g><svg viewBox="0 0 395.52 247.2" height="247.2" width="395.52"><g><g><path xmlns="http://www.w3.org/2000/svg" d="M158.807 243.455h1.873v3.745h-52.811v-3.745h1.873c1.748 0 3.371-0.749 4.869-2.248 1.498-1.498 2.822-3.246 3.97-5.243 1.099-1.998 1.898-4.195 2.397-6.592 0.499-2.347 0.749-4.52 0.749-6.517l0-38.239 25.095 0v38.239c0 1.998 0.25 4.17 0.749 6.517 0.499 2.397 1.323 4.594 2.472 6.592 1.099 1.998 2.347 3.745 3.745 5.243 1.348 1.498 3.021 2.247 5.019 2.248zM121.727 23.222c0-1.748-0.25-3.745-0.749-5.993-0.499-2.247-1.298-4.37-2.397-6.367-1.149-1.998-2.472-3.696-3.97-5.094-1.498-1.348-3.121-2.023-4.869-2.023h-1.873v-3.745h65.171c24.97 0 44.271 4.869 57.905 14.607 13.584 9.738 20.375 24.096 20.375 43.073 0 1.672-0.048 3.307-0.144 4.904l-25.775 0c0.05-1.111 0.075-2.247 0.075-3.406 0-9.488-1.798-17.229-5.393-23.222-3.646-5.993-8.64-10.737-14.982-14.232-6.392-3.496-14.083-5.868-23.072-7.117-8.989-1.248-18.852-1.873-29.589-1.872h-5.618l0 49.849-25.095 0zM239.709 190.793c6.742 9.638 13.359 19.576 19.851 29.814 1.748 2.497 3.696 5.119 5.843 7.866 2.097 2.747 4.345 5.244 6.742 7.491 2.347 2.247 4.844 4.045 7.491 5.393 2.597 1.398 5.269 2.097 8.015 2.098v3.745h-16.106c-9.988 0-18.153-2.447-24.495-7.341-6.392-4.844-11.711-10.512-15.955-17.004-8.591-12.6-17.138-25.347-25.642-38.239h29.949c1.43 2.068 2.866 4.128 4.307 6.177z" fill="#ffffff" fill-rule="nonzero" stroke="none" stroke-width="1" stroke-linecap="butt" stroke-linejoin="miter" stroke-miterlimit="10" stroke-dasharray="" stroke-dashoffset="0" font-family="none" font-weight="none" font-size="none" text-anchor="none" style="mix-blend-mode: normal" data-fill-palette-color="tertiary"></path></g></g><g transform="matrix(1,0,0,1,0,72.56425677391056)"><svg viewBox="0 0 395.52 102.07148645217889" height="102.07148645217889" width="395.52"><g><svg viewBox="0 0 395.52 102.07148645217889" height="102.07148645217889" width="395.52"><g><svg viewBox="0 0 395.52 102.07148645217889" height="102.07148645217889" width="395.52"><g><svg viewBox="0 0 395.52 102.07148645217889" height="102.07148645217889" width="395.52"><g><svg viewBox="0 0 395.52 102.07148645217889" height="102.07148645217889" width="395.52"><g><svg viewBox="0 0 395.52 68.39119136408245" height="68.39119136408245" width="395.52"><g transform="matrix(1,0,0,1,0,0)"><svg width="395.52" viewBox="2.25 -33.29999923706055 254.72000122070312 44.04999923706055" height="68.39119136408245" data-palette-color="#7367F0">
    <path d="M9.05-0.5L9.05-0.5 9.3-0.5 9.3 0 2.25 0 2.25-0.5 2.5-0.5Q2.85-0.5 3.15-0.8 3.45-1.1 3.68-1.5 3.9-1.9 4-2.38 4.1-2.85 4.1-3.25L4.1-3.25 4.1-29.9Q4.1-30.25 4-30.7 3.9-31.15 3.68-31.55 3.45-31.95 3.15-32.23 2.85-32.5 2.5-32.5L2.5-32.5 2.25-32.5 2.25-33 10.95-33Q15.95-33 18.68-31.05 21.4-29.1 21.4-25.3L21.4-25.3Q21.4-23.4 20.78-21.98 20.15-20.55 19.1-19.53 18.05-18.5 16.63-17.88 15.2-17.25 13.6-16.95L13.6-16.95 17.2-11.45Q18.5-9.45 19.85-7.53 21.2-5.6 22.5-3.55L22.5-3.55Q22.85-3.05 23.28-2.5 23.7-1.95 24.18-1.5 24.65-1.05 25.18-0.78 25.7-0.5 26.25-0.5L26.25-0.5 26.25 0 24.1 0Q22.1 0 20.83-0.98 19.55-1.95 18.7-3.25L18.7-3.25Q16.45-6.55 14.23-9.95 12-13.35 9.8-16.65L9.8-16.65Q9.25-16.7 8.63-16.78 8-16.85 7.45-16.95L7.45-16.95 7.45-3.25Q7.45-2.85 7.55-2.38 7.65-1.9 7.88-1.5 8.1-1.1 8.38-0.8 8.65-0.5 9.05-0.5ZM8.2-31.3L7.45-31.3 7.45-18.6 7.7-18.6Q8.1-18.55 8.97-18.53 9.85-18.5 11.15-18.5L11.15-18.5Q12.2-18.5 13.38-18.82 14.55-19.15 15.58-19.93 16.6-20.7 17.28-21.95 17.95-23.2 17.95-25.1L17.95-25.1Q17.95-27 17.23-28.2 16.5-29.4 15.23-30.1 13.95-30.8 12.15-31.05 10.35-31.3 8.2-31.3L8.2-31.3ZM46.2-10.1L28.85-10.1Q29.05-8.35 29.7-6.78 30.35-5.2 31.42-4 32.5-2.8 34.05-2.08 35.6-1.35 37.65-1.35L37.65-1.35Q38.75-1.35 39.97-1.68 41.2-2 42.25-2.6 43.3-3.2 44.12-4.08 44.95-4.95 45.25-6.05L45.25-6.05 45.7-6.05 45.7-2.3Q45.4-2.3 45.02-2.1 44.65-1.9 44.15-1.6L44.15-1.6Q43.15-1 41.45-0.33 39.75 0.35 36.95 0.35L36.95 0.35Q34.7 0.35 32.67-0.3 30.65-0.95 29.1-2.3 27.55-3.65 26.62-5.75 25.7-7.85 25.7-10.75L25.7-10.75Q25.7-12.6 26.32-14.5 26.95-16.4 28.22-17.93 29.5-19.45 31.5-20.4 33.5-21.35 36.3-21.35L36.3-21.35Q38.8-21.35 40.67-20.5 42.55-19.65 43.77-18.15 45-16.65 45.6-14.6 46.2-12.55 46.2-10.1L46.2-10.1ZM36.1-19.7L36.1-19.7Q34.35-19.7 33.07-19 31.8-18.3 30.9-17.2 30-16.1 29.5-14.7 29-13.3 28.85-11.9L28.85-11.9 43.1-11.9Q43.05-13.35 42.57-14.75 42.1-16.15 41.25-17.25 40.4-18.35 39.1-19.03 37.8-19.7 36.1-19.7ZM65.14-5.7L65.14-5.7Q65.14-4.4 64.5-3.3 63.84-2.2 62.72-1.38 61.59-0.55 60.09-0.08 58.59 0.4 56.84 0.4L56.84 0.4Q54.69 0.4 53.34-0.18 51.99-0.75 51.04-1.35L51.04-1.35Q50.39-1.75 49.84-2.02 49.29-2.3 48.64-2.3L48.64-2.3 48.64-6.1 49.14-6.1Q49.29-5.4 50.02-4.58 50.74-3.75 51.77-3.05 52.79-2.35 54.02-1.88 55.24-1.4 56.49-1.4L56.49-1.4Q57.39-1.4 58.34-1.6 59.29-1.8 60.07-2.25 60.84-2.7 61.37-3.38 61.89-4.05 61.89-5L61.89-5Q61.89-5.95 61.34-6.65 60.79-7.35 59.94-7.88 59.09-8.4 57.99-8.8 56.89-9.2 55.79-9.55L55.79-9.55Q54.49-9.95 53.17-10.45 51.84-10.95 50.79-11.63 49.74-12.3 49.09-13.28 48.44-14.25 48.44-15.6L48.44-15.6Q48.44-16.75 48.87-17.8 49.29-18.85 50.27-19.63 51.24-20.4 52.79-20.88 54.34-21.35 56.54-21.35L56.54-21.35Q58.49-21.35 59.57-21.03 60.64-20.7 61.34-20.35L61.34-20.35Q61.79-20.1 62.24-19.98 62.69-19.85 63.24-19.85L63.24-19.85 63.24-16.35 62.84-16.35Q61.94-18 60.09-18.85 58.24-19.7 56.29-19.7L56.29-19.7Q55.04-19.7 54.14-19.38 53.24-19.05 52.67-18.57 52.09-18.1 51.82-17.5 51.54-16.9 51.54-16.3L51.54-16.3Q51.54-15.45 52.02-14.85 52.49-14.25 53.32-13.8 54.14-13.35 55.17-12.95 56.19-12.55 57.34-12.2L57.34-12.2Q58.74-11.75 60.14-11.23 61.54-10.7 62.64-9.95 63.74-9.2 64.44-8.18 65.14-7.15 65.14-5.7ZM79.94-19.3L74.34-19.3 74.34-7.25Q74.34-5.95 74.39-4.9 74.44-3.85 74.64-3.15 74.84-2.45 75.24-2.08 75.64-1.7 76.34-1.7L76.34-1.7Q77.39-1.7 78.32-2.7 79.24-3.7 79.49-5.1L79.49-5.1 79.94-5.1 79.94-1.45Q79.49-1.45 79.19-1.15L79.19-1.15Q78.79-0.8 78.07-0.4 77.34 0 75.89 0L75.89 0Q74.09 0 73.09-0.7 72.09-1.4 71.64-2.55 71.19-3.7 71.12-5.1 71.04-6.5 71.04-7.95L71.04-7.95 71.04-19.3 68.24-19.3 68.24-21 71.04-21 71.04-25.45Q71.04-26.3 70.82-27.03 70.59-27.75 69.34-27.8L69.34-27.8 69.34-28.3 74.34-29.9 74.34-21 79.94-21 79.94-19.3ZM101.74 0L96.89 0 96.89-2.55 96.64-2.3Q95.39-1.05 93.77-0.35 92.14 0.35 89.84 0.35L89.84 0.35Q88.09 0.35 86.84-0.05 85.59-0.45 84.79-1.18 83.99-1.9 83.61-2.85 83.24-3.8 83.24-4.85L83.24-4.85Q83.24-6.55 84.16-7.85 85.09-9.15 86.84-10.15 88.59-11.15 91.11-11.98 93.64-12.8 96.89-13.6L96.89-13.6Q96.79-15.55 96.09-16.75 95.39-17.95 94.44-18.63 93.49-19.3 92.44-19.53 91.39-19.75 90.64-19.75L90.64-19.75Q89.34-19.75 88.36-19.35 87.39-18.95 86.66-18.32 85.94-17.7 85.44-16.98 84.94-16.25 84.64-15.6L84.64-15.6 84.19-15.6 84.19-19.25Q84.59-19.3 84.94-19.5 85.29-19.7 85.79-19.9L85.79-19.9Q86.54-20.2 87.84-20.78 89.14-21.35 91.49-21.35L91.49-21.35Q94.24-21.35 95.94-20.65 97.64-19.95 98.56-18.8 99.49-17.65 99.79-16.18 100.09-14.7 100.09-13.15L100.09-13.15 100.09-3.25Q100.09-2.25 100.54-1.38 100.99-0.5 101.74-0.5L101.74-0.5 101.74 0ZM96.34-4.15L96.89-4.75 96.89-11.9 96.39-11.8Q95.19-11.5 93.47-11 91.74-10.5 90.19-9.7 88.64-8.9 87.54-7.8 86.44-6.7 86.44-5.25L86.44-5.25Q86.44-3.65 87.74-2.6 89.04-1.55 91.14-1.55L91.14-1.55Q92.79-1.55 94.04-2.27 95.29-3 96.34-4.15L96.34-4.15ZM126.34-21.55L126.34-3.25Q126.34-2.9 126.44-2.43 126.54-1.95 126.71-1.53 126.89-1.1 127.19-0.8 127.49-0.5 127.89-0.5L127.89-0.5 127.89 0 123.04 0 123.04-2.75Q122.29-1.65 120.84-0.6 119.39 0.45 117.09 0.45L117.09 0.45Q114.19 0.45 112.49-0.55 110.79-1.55 109.89-3.1 108.99-4.65 108.74-6.48 108.49-8.3 108.49-9.9L108.49-9.9 108.49-17.05Q108.49-17.5 108.46-17.93 108.44-18.35 108.26-18.7 108.09-19.05 107.74-19.28 107.39-19.5 106.74-19.5L106.74-19.5 106.74-19.95 111.79-21.55 111.79-8.8Q111.79-5 113.44-3.2 115.09-1.4 117.49-1.4L117.49-1.4Q118.79-1.4 119.81-1.98 120.84-2.55 121.56-3.35 122.29-4.15 122.66-5 123.04-5.85 123.04-6.4L123.04-6.4 123.04-17.05Q123.04-17.5 123.01-17.93 122.99-18.35 122.81-18.7 122.64-19.05 122.29-19.28 121.94-19.5 121.29-19.5L121.29-19.5 121.29-19.95 126.34-21.55ZM146.44-20.4L144.94-17.35Q144.34-18.35 143.69-18.6 143.04-18.85 142.19-18.85L142.19-18.85Q141.64-18.85 141.01-18.6 140.39-18.35 139.79-17.95 139.19-17.55 138.61-17.07 138.04-16.6 137.64-16.2L137.64-16.2 137.64-3.2Q137.64-2.8 137.74-2.35 137.84-1.9 138.06-1.48 138.29-1.05 138.56-0.78 138.84-0.5 139.24-0.5L139.24-0.5 139.24 0 132.74 0 132.74-0.5Q133.09-0.5 133.39-0.78 133.69-1.05 133.91-1.48 134.14-1.9 134.24-2.35 134.34-2.8 134.34-3.2L134.34-3.2 134.34-17.15Q134.34-17.85 133.89-18.55 133.44-19.25 132.59-19.45L132.59-19.45 132.59-19.85 137.64-21.35 137.64-18.35Q138.09-18.9 138.59-19.43 139.09-19.95 139.71-20.38 140.34-20.8 141.09-21.08 141.84-21.35 142.84-21.35L142.84-21.35Q143.54-21.35 144.64-21.05 145.74-20.75 146.44-20.4L146.44-20.4ZM167.63 0L162.78 0 162.78-2.55 162.53-2.3Q161.28-1.05 159.66-0.35 158.03 0.35 155.73 0.35L155.73 0.35Q153.98 0.35 152.73-0.05 151.48-0.45 150.68-1.18 149.88-1.9 149.51-2.85 149.13-3.8 149.13-4.85L149.13-4.85Q149.13-6.55 150.06-7.85 150.98-9.15 152.73-10.15 154.48-11.15 157.01-11.98 159.53-12.8 162.78-13.6L162.78-13.6Q162.68-15.55 161.98-16.75 161.28-17.95 160.33-18.63 159.38-19.3 158.33-19.53 157.28-19.75 156.53-19.75L156.53-19.75Q155.23-19.75 154.26-19.35 153.28-18.95 152.56-18.32 151.83-17.7 151.33-16.98 150.83-16.25 150.53-15.6L150.53-15.6 150.08-15.6 150.08-19.25Q150.48-19.3 150.83-19.5 151.18-19.7 151.68-19.9L151.68-19.9Q152.43-20.2 153.73-20.78 155.03-21.35 157.38-21.35L157.38-21.35Q160.13-21.35 161.83-20.65 163.53-19.95 164.46-18.8 165.38-17.65 165.68-16.18 165.98-14.7 165.98-13.15L165.98-13.15 165.98-3.25Q165.98-2.25 166.43-1.38 166.88-0.5 167.63-0.5L167.63-0.5 167.63 0ZM162.23-4.15L162.78-4.75 162.78-11.9 162.28-11.8Q161.08-11.5 159.36-11 157.63-10.5 156.08-9.7 154.53-8.9 153.43-7.8 152.33-6.7 152.33-5.25L152.33-5.25Q152.33-3.65 153.63-2.6 154.93-1.55 157.03-1.55L157.03-1.55Q158.68-1.55 159.93-2.27 161.18-3 162.23-4.15L162.23-4.15ZM192.53-12.9L192.53-3.25Q192.53-2.85 192.63-2.38 192.73-1.9 192.96-1.5 193.18-1.1 193.46-0.8 193.73-0.5 194.13-0.5L194.13-0.5 194.13 0 187.68 0 187.68-0.5Q188.03-0.5 188.33-0.8 188.63-1.1 188.86-1.5 189.08-1.9 189.18-2.38 189.28-2.85 189.28-3.25L189.28-3.25 189.28-12.55Q189.28-14.35 188.78-15.7 188.28-17.05 187.43-17.95 186.58-18.85 185.5-19.28 184.43-19.7 183.33-19.7L183.33-19.7Q182.23-19.7 181.16-19.25 180.08-18.8 179.25-18.07 178.43-17.35 177.91-16.38 177.38-15.4 177.38-14.35L177.38-14.35 177.38-3.25Q177.38-2.85 177.48-2.38 177.58-1.9 177.81-1.5 178.03-1.1 178.31-0.8 178.58-0.5 178.98-0.5L178.98-0.5 178.98 0 172.48 0 172.48-0.5Q172.83-0.5 173.13-0.8 173.43-1.1 173.66-1.5 173.88-1.9 173.98-2.38 174.08-2.85 174.08-3.25L174.08-3.25 174.08-17.05Q174.08-17.9 173.83-18.68 173.58-19.45 172.38-19.5L172.38-19.5 172.38-19.95 177.38-21.55 177.38-18.8Q177.73-19.2 178.28-19.68 178.83-20.15 179.61-20.58 180.38-21 181.41-21.28 182.43-21.55 183.83-21.55L183.83-21.55Q186.18-21.55 187.83-20.75 189.48-19.95 190.53-18.68 191.58-17.4 192.06-15.88 192.53-14.35 192.53-12.9L192.53-12.9ZM209.53-19.3L203.93-19.3 203.93-7.25Q203.93-5.95 203.98-4.9 204.03-3.85 204.23-3.15 204.43-2.45 204.83-2.08 205.23-1.7 205.93-1.7L205.93-1.7Q206.98-1.7 207.9-2.7 208.83-3.7 209.08-5.1L209.08-5.1 209.53-5.1 209.53-1.45Q209.08-1.45 208.78-1.15L208.78-1.15Q208.38-0.8 207.65-0.4 206.93 0 205.48 0L205.48 0Q203.68 0 202.68-0.7 201.68-1.4 201.23-2.55 200.78-3.7 200.7-5.1 200.63-6.5 200.63-7.95L200.63-7.95 200.63-19.3 197.83-19.3 197.83-21 200.63-21 200.63-25.45Q200.63-26.3 200.4-27.03 200.18-27.75 198.93-27.8L198.93-27.8 198.93-28.3 203.93-29.9 203.93-21 209.53-21 209.53-19.3ZM220.03 0L213.47 0 213.47-0.5Q213.88-0.5 214.18-0.8 214.47-1.1 214.7-1.5 214.93-1.9 215.03-2.38 215.13-2.85 215.13-3.25L215.13-3.25 215.13-28.85Q215.13-29.7 214.88-30.45 214.63-31.2 213.38-31.25L213.38-31.25 213.38-31.75 218.43-33.3 218.43-3.25Q218.43-2.85 218.53-2.38 218.63-1.9 218.85-1.5 219.08-1.1 219.35-0.8 219.63-0.5 220.03-0.5L220.03-0.5 220.03 0ZM231.57 0L225.02 0 225.02-0.5Q225.42-0.5 225.72-0.8 226.02-1.1 226.25-1.5 226.47-1.9 226.57-2.38 226.67-2.85 226.67-3.25L226.67-3.25 226.67-28.85Q226.67-29.7 226.42-30.45 226.17-31.2 224.92-31.25L224.92-31.25 224.92-31.75 229.97-33.3 229.97-3.25Q229.97-2.85 230.07-2.38 230.17-1.9 230.4-1.5 230.62-1.1 230.9-0.8 231.17-0.5 231.57-0.5L231.57-0.5 231.57 0ZM254.67-18.3L244.37 7.15Q243.67 9.25 242.6 10 241.52 10.75 240.37 10.75L240.37 10.75Q239.62 10.75 239.05 10.55 238.47 10.35 238.05 10.08 237.62 9.8 237.37 9.55 237.12 9.3 237.07 9.15L237.07 9.15 238.72 5.1Q238.97 6 239.22 6.45L239.22 6.45Q239.47 6.95 239.92 7.35 240.37 7.75 241.02 7.75L241.02 7.75Q242.22 7.75 242.92 6L242.92 6 245.37-0.15 237.32-18.35Q237.07-18.95 236.5-19.73 235.92-20.5 234.92-20.5L234.92-20.5 234.92-21 241.52-21 241.52-20.5Q241.32-20.5 241.02-20.15 240.72-19.8 240.72-19.25L240.72-19.25Q240.72-18.8 240.92-18.45L240.92-18.45 247.07-4.3 252.97-18.75Q253.12-19.1 253.12-19.4L253.12-19.4Q253.12-19.9 252.8-20.2 252.47-20.5 252.12-20.5L252.12-20.5 252.12-21 256.97-21 256.97-20.5Q256.17-20.5 255.6-19.83 255.02-19.15 254.67-18.3L254.67-18.3Z" opacity="1" transform="matrix(1,0,0,1,0,0)" fill="#ffffff" class="undefined-text-0" data-fill-palette-color="primary" id="text-0"></path></svg></g></svg></g><g transform="matrix(1,0,0,1,0,78.37110757269481)"><svg viewBox="0 0 395.52 23.700378879484077" height="23.700378879484077" width="395.52"><g transform="matrix(1,0,0,1,0,0)"><svg width="395.52" viewBox="4.349999904632568 -35.25 744.2200317382812 44.599998474121094" height="23.700378879484077" data-palette-color="#7367F0"><path d="M8.45 0L4.35 0 4.35-35.25 8.45-35.25 8.45 0ZM28.8-24.95Q37.55-24.95 37.55-15.3L37.55-15.3 37.55 0 33.5 0 33.5-15.05Q33.5-18.45 32.17-20 30.85-21.55 27.95-21.55L27.95-21.55Q24.6-21.55 22.6-19.5 20.6-17.45 20.6-13.95L20.6-13.95 20.6 0 16.55 0 16.55-24.35 20.55-24.35 20.55-20.35Q21.75-22.6 23.9-23.78 26.05-24.95 28.8-24.95L28.8-24.95ZM57.2-24.95Q65.95-24.95 65.95-15.3L65.95-15.3 65.95 0 61.9 0 61.9-15.05Q61.9-18.45 60.57-20 59.25-21.55 56.35-21.55L56.35-21.55Q53-21.55 51-19.5 49-17.45 49-13.95L49-13.95 49 0 44.95 0 44.95-24.35 48.95-24.35 48.95-20.35Q50.15-22.6 52.3-23.78 54.45-24.95 57.2-24.95L57.2-24.95ZM83.44 0.35Q79.99 0.35 77.37-1.2 74.74-2.75 73.32-5.63 71.89-8.5 71.89-12.3L71.89-12.3Q71.89-16.1 73.32-18.98 74.74-21.85 77.37-23.4 79.99-24.95 83.44-24.95L83.44-24.95Q86.89-24.95 89.54-23.4 92.19-21.85 93.62-18.98 95.04-16.1 95.04-12.3L95.04-12.3Q95.04-8.5 93.62-5.63 92.19-2.75 89.54-1.2 86.89 0.35 83.44 0.35L83.44 0.35ZM83.44-3Q87.04-3 88.97-5.38 90.89-7.75 90.89-12.3L90.89-12.3Q90.89-16.75 88.94-19.18 86.99-21.6 83.44-21.6L83.44-21.6Q79.89-21.6 77.94-19.18 75.99-16.75 75.99-12.3L75.99-12.3Q75.99-7.8 77.92-5.4 79.84-3 83.44-3L83.44-3ZM109.99-4.4L118.24-24.3 122.29-24.3 111.79 0 107.99 0 97.54-24.3 101.84-24.3 109.99-4.4ZM135.94-24.95Q140.59-24.95 142.86-22.58 145.14-20.2 145.14-15.35L145.14-15.35 145.14 0 141.19 0 141.19-4.15Q140.24-2 138.29-0.83 136.34 0.35 133.79 0.35L133.79 0.35Q131.44 0.35 129.46-0.6 127.49-1.55 126.34-3.25 125.19-4.95 125.19-7L125.19-7Q125.19-9.75 126.59-11.28 127.99-12.8 131.19-13.48 134.39-14.15 140.09-14.15L140.09-14.15 141.19-14.15 141.19-15.8Q141.19-18.85 139.94-20.23 138.69-21.6 135.89-21.6L135.89-21.6Q131.69-21.6 127.54-19L127.54-19 126.19-21.95Q128.09-23.3 130.76-24.13 133.44-24.95 135.94-24.95L135.94-24.95ZM134.34-2.85Q137.34-2.85 139.26-4.88 141.19-6.9 141.19-10.1L141.19-10.1 141.19-11.55 140.29-11.55Q135.89-11.55 133.59-11.18 131.29-10.8 130.31-9.93 129.34-9.05 129.34-7.35L129.34-7.35Q129.34-5.4 130.76-4.13 132.19-2.85 134.34-2.85L134.34-2.85ZM163.24-2.9Q164.34-2.9 165.44-3.05L165.44-3.05 165.24 0.15Q164.09 0.35 162.74 0.35L162.74 0.35Q158.34 0.35 156.11-1.95 153.89-4.25 153.89-8.35L153.89-8.35 153.89-21.15 149.14-21.15 149.14-24.35 153.89-24.35 153.89-31.75 157.94-31.75 157.94-24.35 164.84-24.35 164.84-21.15 157.94-21.15 157.94-8.65Q157.94-2.9 163.24-2.9L163.24-2.9ZM173.58 0L169.53 0 169.53-24.35 173.58-24.35 173.58 0ZM169.13-30.35L169.13-34.9 174.03-34.9 174.03-30.35 169.13-30.35ZM193.38-24.95Q202.13-24.95 202.13-15.3L202.13-15.3 202.13 0 198.08 0 198.08-15.05Q198.08-18.45 196.76-20 195.43-21.55 192.53-21.55L192.53-21.55Q189.18-21.55 187.18-19.5 185.18-17.45 185.18-13.95L185.18-13.95 185.18 0 181.13 0 181.13-24.35 185.13-24.35 185.13-20.35Q186.33-22.6 188.48-23.78 190.63-24.95 193.38-24.95L193.38-24.95ZM227.28-24.35L231.33-24.35 231.33-1.65Q231.33 3.8 228.53 6.58 225.73 9.35 220.23 9.35L220.23 9.35Q213.83 9.35 209.48 6.05L209.48 6.05 210.83 3.05Q213.28 4.65 215.43 5.35 217.58 6.05 220.23 6.05L220.23 6.05Q223.73 6.05 225.53 4.17 227.33 2.3 227.33-1.3L227.33-1.3 227.33-5.6Q226.28-3.25 224.1-2 221.93-0.75 218.98-0.75L218.98-0.75Q215.78-0.75 213.3-2.25 210.83-3.75 209.45-6.5 208.08-9.25 208.08-12.85L208.08-12.85Q208.08-16.45 209.45-19.2 210.83-21.95 213.3-23.45 215.78-24.95 218.98-24.95L218.98-24.95Q221.88-24.95 224.03-23.7 226.18-22.45 227.28-20.15L227.28-20.15 227.28-24.35ZM219.78-4.1Q223.28-4.1 225.28-6.43 227.28-8.75 227.28-12.85L227.28-12.85Q227.28-16.9 225.3-19.23 223.33-21.55 219.78-21.55L219.78-21.55Q216.23-21.55 214.2-19.23 212.18-16.9 212.18-12.85L212.18-12.85Q212.18-8.75 214.2-6.43 216.23-4.1 219.78-4.1L219.78-4.1ZM263.97-24.95Q272.72-24.95 272.72-15.3L272.72-15.3 272.72 0 268.67 0 268.67-15.05Q268.67-18.45 267.35-20 266.02-21.55 263.12-21.55L263.12-21.55Q259.77-21.55 257.77-19.5 255.77-17.45 255.77-13.95L255.77-13.95 255.77 0 251.72 0 251.72-35.25 255.77-35.25 255.77-20.45Q256.97-22.65 259.1-23.8 261.22-24.95 263.97-24.95L263.97-24.95ZM300.52-13.05L300.52-11.55 282.72-11.55Q282.92-7.3 285.02-5.13 287.12-2.95 290.97-2.95L290.97-2.95Q295.22-2.95 298.77-5.85L298.77-5.85 300.12-2.9Q298.52-1.4 296.02-0.53 293.52 0.35 290.92 0.35L290.92 0.35Q285.22 0.35 281.95-3 278.67-6.35 278.67-12.25L278.67-12.25Q278.67-16 280.12-18.88 281.57-21.75 284.2-23.35 286.82-24.95 290.17-24.95L290.17-24.95Q295.02-24.95 297.77-21.78 300.52-18.6 300.52-13.05L300.52-13.05ZM290.22-21.8Q287.02-21.8 285.1-19.8 283.17-17.8 282.82-14.15L282.82-14.15 296.97-14.15Q296.87-17.85 295.12-19.83 293.37-21.8 290.22-21.8L290.22-21.8ZM316.37-24.95Q321.02-24.95 323.29-22.58 325.57-20.2 325.57-15.35L325.57-15.35 325.57 0 321.62 0 321.62-4.15Q320.67-2 318.72-0.83 316.77 0.35 314.22 0.35L314.22 0.35Q311.87 0.35 309.89-0.6 307.92-1.55 306.77-3.25 305.62-4.95 305.62-7L305.62-7Q305.62-9.75 307.02-11.28 308.42-12.8 311.62-13.48 314.82-14.15 320.52-14.15L320.52-14.15 321.62-14.15 321.62-15.8Q321.62-18.85 320.37-20.23 319.12-21.6 316.32-21.6L316.32-21.6Q312.12-21.6 307.97-19L307.97-19 306.62-21.95Q308.52-23.3 311.19-24.13 313.87-24.95 316.37-24.95L316.37-24.95ZM314.77-2.85Q317.77-2.85 319.69-4.88 321.62-6.9 321.62-10.1L321.62-10.1 321.62-11.55 320.72-11.55Q316.32-11.55 314.02-11.18 311.72-10.8 310.74-9.93 309.77-9.05 309.77-7.35L309.77-7.35Q309.77-5.4 311.19-4.13 312.62-2.85 314.77-2.85L314.77-2.85ZM337.02 0L332.97 0 332.97-35.25 337.02-35.25 337.02 0ZM355.26-2.9Q356.36-2.9 357.46-3.05L357.46-3.05 357.26 0.15Q356.11 0.35 354.76 0.35L354.76 0.35Q350.36 0.35 348.14-1.95 345.91-4.25 345.91-8.35L345.91-8.35 345.91-21.15 341.16-21.15 341.16-24.35 345.91-24.35 345.91-31.75 349.96-31.75 349.96-24.35 356.86-24.35 356.86-21.15 349.96-21.15 349.96-8.65Q349.96-2.9 355.26-2.9L355.26-2.9ZM373.81-24.95Q382.56-24.95 382.56-15.3L382.56-15.3 382.56 0 378.51 0 378.51-15.05Q378.51-18.45 377.19-20 375.86-21.55 372.96-21.55L372.96-21.55Q369.61-21.55 367.61-19.5 365.61-17.45 365.61-13.95L365.61-13.95 365.61 0 361.56 0 361.56-35.25 365.61-35.25 365.61-20.45Q366.81-22.65 368.94-23.8 371.06-24.95 373.81-24.95L373.81-24.95ZM399.16-4.4L407.41-24.3 411.46-24.3 397.06 9 392.91 9 397.01-0.3 386.71-24.3 391.01-24.3 399.16-4.4ZM446.1-35.25L450.15-35.25 450.15 0 446.1 0 446.1-4.45Q445-2.15 442.88-0.9 440.75 0.35 437.9 0.35L437.9 0.35Q434.7 0.35 432.25-1.25 429.8-2.85 428.45-5.73 427.1-8.6 427.1-12.4L427.1-12.4Q427.1-16.15 428.45-19 429.8-21.85 432.25-23.4 434.7-24.95 437.9-24.95L437.9-24.95Q440.75-24.95 442.88-23.7 445-22.45 446.1-20.15L446.1-20.15 446.1-35.25ZM438.7-3Q442.25-3 444.18-5.43 446.1-7.85 446.1-12.3L446.1-12.3Q446.1-16.75 444.18-19.15 442.25-21.55 438.7-21.55L438.7-21.55Q435.15-21.55 433.18-19.15 431.2-16.75 431.2-12.4L431.2-12.4Q431.2-7.95 433.18-5.48 435.15-3 438.7-3L438.7-3ZM461.7 0L457.65 0 457.65-24.35 461.7-24.35 461.7 0ZM457.25-30.35L457.25-34.9 462.15-34.9 462.15-30.35 457.25-30.35ZM481.5-24.95Q490.25-24.95 490.25-15.3L490.25-15.3 490.25 0 486.2 0 486.2-15.05Q486.2-18.45 484.87-20 483.55-21.55 480.65-21.55L480.65-21.55Q477.3-21.55 475.3-19.5 473.3-17.45 473.3-13.95L473.3-13.95 473.3 0 469.25 0 469.25-24.35 473.25-24.35 473.25-20.35Q474.45-22.6 476.6-23.78 478.75-24.95 481.5-24.95L481.5-24.95ZM501.7 0L497.65 0 497.65-24.35 501.7-24.35 501.7 0ZM497.25-30.35L497.25-34.9 502.15-34.9 502.15-30.35 497.25-30.35ZM521.49-24.95Q530.24-24.95 530.24-15.3L530.24-15.3 530.24 0 526.19 0 526.19-15.05Q526.19-18.45 524.87-20 523.54-21.55 520.64-21.55L520.64-21.55Q517.29-21.55 515.29-19.5 513.29-17.45 513.29-13.95L513.29-13.95 513.29 0 509.24 0 509.24-24.35 513.24-24.35 513.24-20.35Q514.44-22.6 516.59-23.78 518.74-24.95 521.49-24.95L521.49-24.95ZM555.39-24.35L559.44-24.35 559.44-1.65Q559.44 3.8 556.64 6.58 553.84 9.35 548.34 9.35L548.34 9.35Q541.94 9.35 537.59 6.05L537.59 6.05 538.94 3.05Q541.39 4.65 543.54 5.35 545.69 6.05 548.34 6.05L548.34 6.05Q551.84 6.05 553.64 4.17 555.44 2.3 555.44-1.3L555.44-1.3 555.44-5.6Q554.39-3.25 552.22-2 550.04-0.75 547.09-0.75L547.09-0.75Q543.89-0.75 541.42-2.25 538.94-3.75 537.57-6.5 536.19-9.25 536.19-12.85L536.19-12.85Q536.19-16.45 537.57-19.2 538.94-21.95 541.42-23.45 543.89-24.95 547.09-24.95L547.09-24.95Q549.99-24.95 552.14-23.7 554.29-22.45 555.39-20.15L555.39-20.15 555.39-24.35ZM547.89-4.1Q551.39-4.1 553.39-6.43 555.39-8.75 555.39-12.85L555.39-12.85Q555.39-16.9 553.42-19.23 551.44-21.55 547.89-21.55L547.89-21.55Q544.34-21.55 542.32-19.23 540.29-16.9 540.29-12.85L540.29-12.85Q540.29-8.75 542.32-6.43 544.34-4.1 547.89-4.1L547.89-4.1ZM588.08 0.35Q581.93 0.35 578.33-2.8L578.33-2.8 579.68-5.8Q581.63-4.25 583.66-3.58 585.68-2.9 588.23-2.9L588.23-2.9Q590.93-2.9 592.36-3.83 593.78-4.75 593.78-6.5L593.78-6.5Q593.78-7.95 592.83-8.8 591.88-9.65 589.68-10.15L589.68-10.15 585.58-11.1Q582.48-11.8 580.83-13.5 579.18-15.2 579.18-17.7L579.18-17.7Q579.18-20.95 581.73-22.95 584.28-24.95 588.53-24.95L588.53-24.95Q591.08-24.95 593.38-24.13 595.68-23.3 597.23-21.75L597.23-21.75 595.88-18.8Q592.53-21.65 588.53-21.65L588.53-21.65Q585.98-21.65 584.56-20.68 583.13-19.7 583.13-17.95L583.13-17.95Q583.13-16.5 584.01-15.63 584.88-14.75 586.83-14.3L586.83-14.3 590.98-13.3Q594.38-12.5 596.03-10.88 597.68-9.25 597.68-6.65L597.68-6.65Q597.68-3.45 595.11-1.55 592.53 0.35 588.08 0.35L588.08 0.35ZM613.93 0.35Q610.48 0.35 607.86-1.2 605.23-2.75 603.81-5.63 602.38-8.5 602.38-12.3L602.38-12.3Q602.38-16.1 603.81-18.98 605.23-21.85 607.86-23.4 610.48-24.95 613.93-24.95L613.93-24.95Q617.38-24.95 620.03-23.4 622.68-21.85 624.11-18.98 625.53-16.1 625.53-12.3L625.53-12.3Q625.53-8.5 624.11-5.63 622.68-2.75 620.03-1.2 617.38 0.35 613.93 0.35L613.93 0.35ZM613.93-3Q617.53-3 619.46-5.38 621.38-7.75 621.38-12.3L621.38-12.3Q621.38-16.75 619.43-19.18 617.48-21.6 613.93-21.6L613.93-21.6Q610.38-21.6 608.43-19.18 606.48-16.75 606.48-12.3L606.48-12.3Q606.48-7.8 608.41-5.4 610.33-3 613.93-3L613.93-3ZM635.63 0L631.58 0 631.58-35.25 635.63-35.25 635.63 0ZM659.63-24.35L663.68-24.35 663.68 0 659.73 0 659.73-4.15Q658.58-1.95 656.5-0.8 654.43 0.35 651.83 0.35L651.83 0.35Q647.48 0.35 645.28-2.08 643.08-4.5 643.08-9.25L643.08-9.25 643.08-24.35 647.13-24.35 647.13-9.35Q647.13-6.1 648.43-4.58 649.73-3.05 652.53-3.05L652.53-3.05Q655.73-3.05 657.68-5.13 659.63-7.2 659.63-10.6L659.63-10.6 659.63-24.35ZM681.92-2.9Q683.02-2.9 684.12-3.05L684.12-3.05 683.92 0.15Q682.77 0.35 681.42 0.35L681.42 0.35Q677.02 0.35 674.8-1.95 672.57-4.25 672.57-8.35L672.57-8.35 672.57-21.15 667.82-21.15 667.82-24.35 672.57-24.35 672.57-31.75 676.62-31.75 676.62-24.35 683.52-24.35 683.52-21.15 676.62-21.15 676.62-8.65Q676.62-2.9 681.92-2.9L681.92-2.9ZM692.27 0L688.22 0 688.22-24.35 692.27-24.35 692.27 0ZM687.82-30.35L687.82-34.9 692.72-34.9 692.72-30.35 687.82-30.35ZM709.92 0.35Q706.47 0.35 703.84-1.2 701.22-2.75 699.79-5.63 698.37-8.5 698.37-12.3L698.37-12.3Q698.37-16.1 699.79-18.98 701.22-21.85 703.84-23.4 706.47-24.95 709.92-24.95L709.92-24.95Q713.37-24.95 716.02-23.4 718.67-21.85 720.09-18.98 721.52-16.1 721.52-12.3L721.52-12.3Q721.52-8.5 720.09-5.63 718.67-2.75 716.02-1.2 713.37 0.35 709.92 0.35L709.92 0.35ZM709.92-3Q713.52-3 715.44-5.38 717.37-7.75 717.37-12.3L717.37-12.3Q717.37-16.75 715.42-19.18 713.47-21.6 709.92-21.6L709.92-21.6Q706.37-21.6 704.42-19.18 702.47-16.75 702.47-12.3L702.47-12.3Q702.47-7.8 704.39-5.4 706.32-3 709.92-3L709.92-3ZM739.82-24.95Q748.57-24.95 748.57-15.3L748.57-15.3 748.57 0 744.52 0 744.52-15.05Q744.52-18.45 743.19-20 741.87-21.55 738.97-21.55L738.97-21.55Q735.62-21.55 733.62-19.5 731.62-17.45 731.62-13.95L731.62-13.95 731.62 0 727.57 0 727.57-24.35 731.57-24.35 731.57-20.35Q732.77-22.6 734.92-23.78 737.07-24.95 739.82-24.95L739.82-24.95Z" opacity="1" transform="matrix(1,0,0,1,0,0)" fill="#ffffff" class="undefined-text-1" data-fill-palette-color="secondary" id="text-1"></path></svg></g></svg></g></svg></g></svg></g></svg></g></svg></g></svg></g></svg></g><defs></defs></svg><rect width="395.52" height="247.2" fill="none" stroke="none" visibility="hidden"></rect></g></svg></g></svg>
